HIERARCHY
ROOT Hips
{
	OFFSET 0.00000 0.00000 0.00000
	CHANNELS 6 Xposition Yposition Zposition Zrotation Yrotation Xrotation 
	JOINT LHipJoint
	{
		OFFSET 0 0 0
		CHANNELS 3 Zrotation Yrotation Xrotation
		JOINT LeftUpLeg
		{
			OFFSET 1.37959 -1.78713 0.86582
			CHANNELS 3 Zrotation Yrotation Xrotation
			JOINT LeftLeg
			{
				OFFSET 2.54611 -6.99539 0.00000
				CHANNELS 3 Zrotation Yrotation Xrotation
				JOINT LeftFoot
				{
					OFFSET 2.59951 -7.14211 0.00000
					CHANNELS 3 Zrotation Yrotation Xrotation
					JOINT LeftToeBase
					{
						OFFSET 0.18493 -0.50810 1.96120
						CHANNELS 3 Zrotation Yrotation Xrotation
						End Site
						{
							OFFSET 0.00000 -0.00000 1.02054
						}
					}
				}
			}
		}
	}
	JOINT RHipJoint
	{
		OFFSET 0 0 0
		CHANNELS 3 Zrotation Yrotation Xrotation
		JOINT RightUpLeg
		{
			OFFSET -1.33564 -1.78713 0.86582
			CHANNELS 3 Zrotation Yrotation Xrotation
			JOINT RightLeg
			{
				OFFSET -2.52705 -6.94302 0.00000
				CHANNELS 3 Zrotation Yrotation Xrotation
				JOINT RightFoot
				{
					OFFSET -2.55964 -7.03257 0.00000
					CHANNELS 3 Zrotation Yrotation Xrotation
					JOINT RightToeBase
					{
						OFFSET -0.25804 -0.70896 2.12109
						CHANNELS 3 Zrotation Yrotation Xrotation
						End Site
						{
							OFFSET -0.00000 -0.00000 1.11821
						}
					}
				}
			}
		}
	}
	JOINT LowerBack
	{
		OFFSET 0 0 0
		CHANNELS 3 Zrotation Yrotation Xrotation
		JOINT Spine
		{
			OFFSET -0.02031 2.24248 -0.18900
			CHANNELS 3 Zrotation Yrotation Xrotation
			JOINT Spine1
			{
				OFFSET 0.08342 2.24689 -0.03799
				CHANNELS 3 Zrotation Yrotation Xrotation
				JOINT Neck
				{
					OFFSET 0 0 0
					CHANNELS 3 Zrotation Yrotation Xrotation
					JOINT Neck1
					{
						OFFSET -0.11607 1.55844 0.24628
						CHANNELS 3 Zrotation Yrotation Xrotation
						JOINT Head
						{
							OFFSET 0.06877 1.60174 -0.17013
							CHANNELS 3 Zrotation Yrotation Xrotation
							End Site
							{
								OFFSET 0.03358 1.61266 -0.08543
							}
						}
					}
				}
				JOINT LeftShoulder
				{
					OFFSET 0 0 0
					CHANNELS 3 Zrotation Yrotation Xrotation
					JOINT LeftArm
					{
						OFFSET 3.47537 0.55866 -0.72348
						CHANNELS 3 Zrotation Yrotation Xrotation
						JOINT LeftForeArm
						{
							OFFSET 5.38154 -0.00000 0.00000
							CHANNELS 3 Zrotation Yrotation Xrotation
							JOINT LeftHand
							{
								OFFSET 3.33312 -0.00000 0.00000
								CHANNELS 3 Zrotation Yrotation Xrotation
								JOINT LeftFingerBase
								{
									OFFSET 0 0 0
									CHANNELS 3 Zrotation Yrotation Xrotation
									JOINT LeftHandIndex1
									{
										OFFSET 0.71079 -0.00000 0.00000
										CHANNELS 3 Zrotation Yrotation Xrotation
										End Site
										{
											OFFSET 0.57306 -0.00000 0.00000
										}
									}
								}
								JOINT LThumb
								{
									OFFSET 0 0 0
									CHANNELS 3 Zrotation Yrotation Xrotation
									End Site
									{
										OFFSET 0.58181 -0.00000 0.58181
									}
								}
							}
						}
					}
				}
				JOINT RightShoulder
				{
					OFFSET 0 0 0
					CHANNELS 3 Zrotation Yrotation Xrotation
					JOINT RightArm
					{
						OFFSET -3.27844 0.90739 -0.35708
						CHANNELS 3 Zrotation Yrotation Xrotation
						JOINT RightForeArm
						{
							OFFSET -5.16954 -0.00000 0.00000
							CHANNELS 3 Zrotation Yrotation Xrotation
							JOINT RightHand
							{
								OFFSET -3.38287 -0.00000 0.00000
								CHANNELS 3 Zrotation Yrotation Xrotation
								JOINT RightFingerBase
								{
									OFFSET 0 0 0
									CHANNELS 3 Zrotation Yrotation Xrotation
									JOINT RightHandIndex1
									{
										OFFSET -0.81797 -0.00000 0.00000
										CHANNELS 3 Zrotation Yrotation Xrotation
										End Site
										{
											OFFSET -0.65947 -0.00000 0.00000
										}
									}
								}
								JOINT RThumb
								{
									OFFSET 0 0 0
									CHANNELS 3 Zrotation Yrotation Xrotation
									End Site
									{
										OFFSET -0.66953 -0.00000 0.66953
									}
								}
							}
						}
					}
				}
			}
		}
	}
}
MOTION
Frames: 14
Frame Time: 0.142857
0.00 0.00 0.00 0 0 0 0 0 0 -21 0 0 0 0 0 0 0 0 0 0 0 0 0 0 21 0 0 0 0 0 0 0 0 0 0 0 0 0 0 0 0 0 0 0 0 0 0 -16 0 0 21 0 0 11 0 0 0 -8 0 0 0 0 0 0 0 0 0 0 0 0 0 0 0 0 0 0 0 0 8 0 0 0 0 0 0 0 0 0 0 0 0 0 0 0 0 0
0.00 0.00 0.00 5.9430 3.0636 -2.3706 0.0000 0.0000 0.0000 -29.6068 -3.2089 -2.3726 2.1198 9.1112 26.1437 0.3934 -15.2787 -14.5919 0.0005 0.1510 0.4150 0.0000 0.0000 0.0000 11.0398 3.3474 -27.7588 -7.4853 -15.7273 50.6869 -0.4599 -2.8222 -14.1540 -0.0497 -1.4389 3.9574 -5.9007 -1.1034 2.7681 0.6673 -1.6085 1.4696 4.0378 -0.8439 0.1454 -11.3665 -2.4874 -18.6433 7.8348 -2.0124 20.8033 4.3893 -0.9343 9.8831 0.0000 0.0000 0.0000 -89.1627 -13.6291 8.6056 13.0883 -21.4165 -2.4854 -0.0000 -0.0000 9.2922 0.0501 38.6577 0.0313 -7.1250 0.0000 -0.0000 -42.9922 63.4301 -21.1424 0.0000 0.0000 0.0000 89.8045 0.6099 10.5953 -14.7343 23.7746 -3.1180 0.0000 -0.0000 -13.4838 -16.0863 14.6219 -4.1636 7.1250 -0.0000 -0.0000 7.7585 -14.8851 5.5572
0.00 0.00 0.00 6.7639 4.6501 -1.7814 0.0000 0.0000 0.0000 -30.3651 -1.8620 2.7689 1.5759 7.9205 22.4728 0.3418 -16.0461 -14.5310 0.0007 -0.1660 -0.4561 0.0000 0.0000 0.0000 10.2611 4.4546 -29.5038 -3.7933 -11.8801 35.3091 -0.3436 -3.8164 -13.1448 -0.1299 -2.3236 6.4008 -6.7865 -1.7551 2.6544 0.6221 -2.4845 1.6130 4.4956 -1.3034 0.4960 -11.1350 -2.6224 -19.3258 7.4117 -2.0914 20.9292 4.1924 -0.9925 10.0582 -0.0000 -0.0000 0.0000 -88.2278 -21.0441 10.0832 14.9219 -24.0372 -3.1941 -0.0000 -0.0000 6.3776 -2.7993 40.4455 -1.8168 -7.1250 0.0000 -0.0000 -48.2169 63.9115 -24.8347 -0.0000 -0.0000 0.0000 90.0638 -3.8692 7.4138 -13.0849 21.4115 -2.4842 0.0000 -0.0000 -10.2532 -15.3917 14.4465 -3.9288 7.1250 -0.0000 -0.0000 8.2283 -15.1247 5.8580
0.00 0.00 0.00 7.0418 6.1772 -0.7556 0.0000 0.0000 0.0000 -29.5678 0.1989 7.8334 1.0738 6.5870 18.4975 0.0189 -18.0268 -12.8488 0.0326 -1.1662 -3.2061 0.0000 0.0000 0.0000 9.5528 7.3225 -28.1188 -0.9295 -6.1416 17.1959 -0.3407 -6.4438 -15.2497 -0.1863 2.7800 -7.6669 -7.9176 -2.5981 1.6257 1.0871 -3.5419 1.7312 5.5628 -1.8880 1.4367 -11.7066 -2.5089 -19.3999 7.6448 -1.7903 20.4957 4.4037 -0.8630 9.8937 0.0000 -0.0000 0.0000 -86.1425 -27.3945 12.5169 17.6720 -27.7352 -4.3955 -0.0000 -0.0000 0.9657 0.1135 37.6514 0.0693 -7.1250 0.0000 -0.0000 -41.5975 62.7029 -19.6288 0.0000 -0.0000 0.0000 90.0677 -8.5587 3.3504 -11.2765 18.7108 -1.8636 0.0000 -0.0000 -6.2216 -13.7012 15.5029 -3.7283 7.1250 -0.0000 -0.0000 9.3762 -14.1954 6.8852
0.00 0.00 0.00 5.8318 7.0841 0.6605 0.0000 0.0000 0.0000 -26.1747 0.4218 17.2626 1.0339 6.4674 18.1467 -0.8387 -16.4884 1.7179 0.7136 -5.3985 -15.0488 0.0000 0.0000 0.0000 13.5469 7.4706 -28.5475 -1.2444 -7.0732 19.9323 -0.0484 -2.0768 -5.4581 -0.2465 3.1952 -8.8225 -6.8055 -3.6082 0.7941 1.9774 -4.8536 0.8230 5.8205 -2.5015 1.1466 -9.6143 -1.7949 -19.5621 4.3857 -0.6228 20.5266 3.0466 -0.5362 9.8000 0.0000 -0.0000 0.0000 -82.4706 -31.7072 12.4323 24.6085 -35.8011 -8.0598 -0.0000 0.0000 -2.5673 0.3067 36.6975 0.1833 -7.1250 0.0000 -0.0000 -40.2157 62.0325 -18.2272 0.0000 -0.0000 0.0000 90.8361 -17.8158 -6.4423 -9.5507 16.0338 -1.3482 0.0000 0.0000 0.1065 -13.1200 12.8574 -2.9690 7.1250 -0.0000 -0.0000 9.7891 -16.9090 6.6167
0.00 0.00 0.00 2.5559 5.5253 0.0481 0.0000 0.0000 0.0000 -22.2768 0.1862 13.9845 2.4302 9.7098 28.0419 -0.0676 -11.4885 15.3574 0.3673 -3.8931 -10.7761 0.0000 0.0000 0.0000 18.9263 5.6086 -26.5837 -1.5669 -7.8988 22.4071 0.0016 -0.7055 -0.2534 -0.0385 1.2664 -3.4822 -3.6760 -3.3705 1.1892 3.3057 -4.5371 0.4819 5.4928 -2.2985 0.3859 -9.2789 -1.2583 -18.7989 3.2830 0.2070 20.3006 2.7057 -0.2526 9.5231 -0.0000 0.0000 0.0000 -83.3077 -28.5715 11.7490 26.3699 -37.5716 -9.1123 -0.0000 0.0000 -3.7348 0.9855 37.2563 0.5966 -7.1250 0.0000 -0.0000 -40.2527 62.6329 -18.8151 -0.0000 0.0000 0.0000 90.0252 -18.0093 -9.5864 -9.0033 15.1657 -1.2010 0.0000 0.0000 3.0541 -13.0169 12.6946 -2.9083 7.1250 -0.0000 -0.0000 9.8629 -17.0800 6.6308
0.00 0.00 0.00 -0.0324 3.4822 -0.5027 0.0000 0.0000 0.0000 -18.3759 -0.5948 5.5560 5.6965 14.1276 43.7511 0.5196 -9.6685 20.3844 0.1755 -2.6982 -7.4397 0.0000 0.0000 0.0000 23.5079 6.6359 -22.4761 -2.0496 -8.9685 25.6970 -0.0201 1.6565 -2.6033 -0.0506 1.4510 -3.9907 -2.1717 -2.6970 1.4295 4.2722 -3.6277 0.7478 5.6626 -1.8453 0.3828 -8.6352 -1.1141 -19.0301 2.8329 0.3500 20.8367 2.4707 -0.2009 9.7467 0.0000 0.0000 0.0000 -83.8628 -26.7036 12.3247 25.0688 -36.2742 -8.3306 -0.0000 0.0000 -3.8163 1.5956 36.9976 0.9604 -7.1250 0.0000 -0.0000 -39.3358 62.5939 -18.2776 0.0000 0.0000 0.0000 89.6513 -15.4844 -6.7456 -9.6117 16.1298 -1.3651 0.0000 0.0000 0.0189 -12.3980 12.4616 -2.7158 7.1250 -0.0000 -0.0000 10.2948 -17.3541 6.8678
0.00 0.00 0.00 -2.6875 1.8612 -1.5211 0.0000 0.0000 0.0000 -13.7268 0.3134 -3.4478 8.8061 16.6813 55.4170 -0.2174 -8.2760 3.9141 0.1180 -2.2146 -6.0991 0.0000 0.0000 0.0000 28.0858 5.6091 -16.0955 -1.9479 -8.7567 25.0371 -0.1070 2.3816 -5.8120 -0.0853 1.8833 -5.1834 0.4436 -1.6949 1.5452 4.6699 -2.2541 0.8707 4.5908 -1.1419 0.2001 -9.1531 -1.7186 -17.6514 3.7516 -0.7073 21.4408 2.7429 -0.6467 9.7764 0.0000 0.0000 0.0000 -84.9484 -24.1143 14.9035 22.4650 -33.4986 -6.8407 -0.0000 0.0000 -1.8810 -0.4997 37.1840 -0.3020 -7.1250 0.0000 -0.0000 -41.5918 62.1938 -19.1293 0.0000 0.0000 0.0000 89.7839 -11.4257 -1.4275 -10.4089 17.3767 -1.5949 0.0000 -0.0000 -3.3356 -15.0563 13.7238 -3.6516 7.1250 -0.0000 -0.0000 8.4536 -15.8892 5.8814
0.00 0.00 0.00 -4.6255 -0.8649 -1.8847 0.0000 0.0000 0.0000 -10.3248 0.2796 -15.9163 9.1524 16.9048 56.6158 0.3150 -10.9659 -11.7941 0.3596 -3.8526 -10.6624 0.0000 0.0000 0.0000 31.3341 3.7390 -9.8488 -1.9677 -8.7985 25.1669 -0.3097 5.0519 -9.9830 -0.0270 1.0602 -2.9145 2.5258 -0.4128 1.5254 4.8626 -0.5153 0.8827 3.5932 -0.2610 0.0737 -8.4332 -1.9264 -17.2118 2.6487 -0.9733 22.1251 2.2058 -0.8560 9.9527 -0.0000 -0.0000 0.0000 -87.4086 -16.9692 15.8265 20.5972 -31.3552 -5.8389 -0.0000 -0.0000 0.7769 -3.2282 40.4392 -2.0952 -7.1250 0.0000 -0.0000 -48.6015 63.7883 -24.9442 -0.0000 -0.0000 0.0000 88.7599 -2.9727 8.2627 -12.5928 20.6876 -2.3074 0.0000 -0.0000 -10.3081 -16.2765 14.2515 -4.1112 7.1250 -0.0000 -0.0000 7.6242 -15.2482 5.3994
0.00 0.00 0.00 -6.3614 -3.6957 -0.7380 0.0000 0.0000 0.0000 -8.1659 -4.0825 -27.7089 5.4743 13.8988 42.8337 1.4038 -7.3078 -21.1900 0.7897 -5.6729 -15.8382 0.0000 0.0000 0.0000 33.2740 1.6072 -0.8645 -1.2052 -6.9648 19.6110 -0.4870 7.5922 -12.7310 -0.0044 -0.4268 1.1726 5.7983 1.1731 1.5685 4.5153 1.6676 0.5305 1.3681 0.8315 -0.3036 -9.4860 -2.6539 -17.4927 4.4050 -2.1079 22.3238 2.8540 -1.2641 10.1752 0.0000 0.0000 0.0000 -89.8144 -6.8671 16.5772 17.2700 -27.2123 -4.2101 -0.0000 -0.0000 2.9922 1.3230 36.7701 0.7921 -7.1250 0.0000 -0.0000 -39.3201 62.3485 -18.0426 0.0000 0.0000 0.0000 87.6861 9.6934 14.1242 -15.1653 24.3759 -3.2939 0.0000 -0.0000 -17.1280 -17.0155 15.7203 -4.7399 7.1250 -0.0000 -0.0000 7.1529 -13.6699 5.3022
0.00 0.00 0.00 -7.8794 -6.2387 0.9712 0.0000 0.0000 0.0000 -4.7741 -9.2977 -33.2447 2.4206 9.6920 27.9850 1.5865 -0.5360 -23.6668 1.4252 -7.5491 -21.3527 0.0000 0.0000 0.0000 33.6801 -2.1217 10.9510 -0.0579 -1.5521 4.2694 -0.1272 7.9030 -7.9045 -0.0170 -0.8422 2.3147 7.8633 2.4499 0.7982 4.4195 3.3074 0.4651 0.1500 1.6603 0.2154 -9.3319 -2.9438 -18.0473 4.8733 -2.6152 22.0083 2.9188 -1.4175 10.2072 0.0000 -0.0000 0.0000 -91.2831 1.3466 14.9452 14.2579 -23.1022 -2.9285 -0.0000 -0.0000 7.2103 -0.2480 38.2161 -0.1534 -7.1250 0.0000 -0.0000 -42.6827 63.0264 -20.5626 0.0000 -0.0000 0.0000 86.3034 20.2511 16.7398 -17.4193 27.4072 -4.2785 0.0000 -0.0000 -20.6371 -17.8277 16.1868 -5.1230 7.1250 -0.0000 -0.0000 6.6225 -13.1056 4.9825
0.00 0.00 0.00 -4.4181 -11.6399 2.3682 0.0000 0.0000 0.0000 -10.8733 -7.8969 -30.4195 2.2214 9.3127 26.7785 0.2163 -3.7243 -8.2889 0.0990 -2.0292 -5.5863 0.0000 0.0000 0.0000 25.5264 -0.8209 19.9822 -0.8063 -5.7307 16.0050 0.1220 6.1881 1.9338 -0.1512 2.5055 -6.9049 4.9713 4.5006 -0.6747 2.3156 5.9749 -0.6634 -0.3385 2.9725 -0.0471 -8.5207 -3.0987 -17.6234 4.9371 -3.1279 21.9520 2.7342 -1.5825 10.1318 -0.0000 -0.0000 0.0000 -94.4219 18.1736 -17.2827 8.0342 -13.6084 -0.9602 -0.0000 -0.0000 28.5898 -4.8412 41.1822 -3.1920 -7.1250 0.0000 -0.0000 -51.1835 63.8325 -26.6661 -0.0000 -0.0000 0.0000 86.2368 26.1040 17.2752 -24.7374 35.9344 -8.1353 0.0000 -0.0000 -24.8231 -19.1770 19.9896 -6.7801 7.1250 -0.0000 -0.0000 5.9241 -9.0072 4.9509
0.00 0.00 0.00 -3.3531 -9.1244 1.1035 0.0000 0.0000 0.0000 -14.2303 -4.2784 -27.2748 2.3202 9.5035 27.3834 -0.1173 -7.9567 -2.5906 0.1962 2.8523 7.8679 0.0000 0.0000 0.0000 24.4441 -0.8271 11.7223 -3.4501 -11.3903 33.6078 -0.7032 -2.4310 15.2021 -0.0932 -1.9693 5.4208 4.0328 3.6594 0.0392 1.9728 4.8968 -0.5096 -0.2376 2.4343 -0.3811 -9.4558 -3.1164 -16.9435 6.3648 -3.2820 21.1403 3.3689 -1.5676 9.7662 0.0000 0.0000 0.0000 -93.7212 17.4219 -21.3801 7.3768 -12.5377 -0.8115 -0.0000 -0.0000 34.4685 -7.7298 41.1735 -5.1064 -7.1250 0.0000 -0.0000 -53.7363 63.0284 -27.4053 0.0000 0.0000 0.0000 86.7829 22.3768 16.5958 -25.5679 36.7788 -8.6276 0.0000 -0.0000 -24.6340 -18.9906 19.3827 -6.5157 7.1250 -0.0000 -0.0000 6.0070 -9.6606 4.9418
0.00 0.00 0.00 -0.2269 -7.4879 -0.1314 0.0000 0.0000 0.0000 -20.1401 -2.7853 -22.2483 2.2211 9.3123 26.7771 -0.0875 -9.1495 -4.6607 0.0012 -0.2267 -0.6228 0.0000 0.0000 0.0000 20.6501 -0.4717 2.2176 -7.3618 -15.6291 50.2297 -0.7622 -11.4307 16.3998 -0.0474 -1.4049 3.8635 1.5030 2.9886 0.9513 1.2106 4.0125 -0.2683 0.3350 2.0009 -0.7908 -9.1973 -3.2653 -17.8312 5.1903 -3.1924 21.3325 2.9182 -1.6290 9.9723 0.0000 -0.0000 0.0000 -93.1173 15.3537 -14.4561 7.6514 -12.9863 -0.8721 -0.0000 -0.0000 29.9406 -7.6920 41.8667 -5.1508 -7.1250 0.0000 -0.0000 -54.7569 63.4706 -28.6360 0.0000 -0.0000 0.0000 86.5749 19.1084 16.9128 -24.4253 35.6108 -7.9528 0.0000 -0.0000 -24.5875 -19.2987 18.8798 -6.4646 7.1250 -0.0000 -0.0000 5.7771 -10.1422 4.6941
